<svg id="visual" viewBox="0 0 1500 700" width="1500" height="700" xmlns="http://www.w3.org/2000/svg" xmlns:xlink="http://www.w3.org/1999/xlink" version="1.1"><rect x="0" y="0" width="1500" height="700" fill="#06101e"></rect><path d="M0 373L22.7 366.2C45.3 359.3 90.7 345.7 136.2 347.2C181.7 348.7 227.3 365.3 272.8 375.7C318.3 386 363.7 390 409 385.8C454.3 381.7 499.7 369.3 545.2 365.7C590.7 362 636.3 367 681.8 365.5C727.3 364 772.7 356 818.2 354.2C863.7 352.3 909.3 356.7 954.8 367.7C1000.3 378.7 1045.7 396.3 1091 389.7C1136.3 383 1181.7 352 1227.2 338.5C1272.7 325 1318.3 329 1363.8 332.7C1409.3 336.3 1454.7 339.7 1477.3 341.3L1500 343L1500 701L1477.3 701C1454.7 701 1409.3 701 1363.8 701C1318.3 701 1272.7 701 1227.2 701C1181.7 701 1136.3 701 1091 701C1045.7 701 1000.3 701 954.8 701C909.3 701 863.7 701 818.2 701C772.7 701 727.3 701 681.8 701C636.3 701 590.7 701 545.2 701C499.7 701 454.3 701 409 701C363.7 701 318.3 701 272.8 701C227.3 701 181.7 701 136.2 701C90.7 701 45.3 701 22.7 701L0 701Z" fill="#6a9ab0"></path><path d="M0 387L22.7 387.7C45.3 388.3 90.7 389.7 136.2 398.3C181.7 407 227.3 423 272.8 426.5C318.3 430 363.7 421 409 411.8C454.3 402.7 499.7 393.3 545.2 397.2C590.7 401 636.3 418 681.8 417.7C727.3 417.3 772.7 399.7 818.2 389C863.7 378.3 909.3 374.7 954.8 386.5C1000.3 398.3 1045.7 425.7 1091 438C1136.3 450.3 1181.7 447.7 1227.2 445C1272.7 442.3 1318.3 439.7 1363.8 432.2C1409.3 424.7 1454.7 412.3 1477.3 406.2L1500 400L1500 701L1477.3 701C1454.7 701 1409.3 701 1363.8 701C1318.3 701 1272.7 701 1227.2 701C1181.7 701 1136.3 701 1091 701C1045.7 701 1000.3 701 954.8 701C909.3 701 863.7 701 818.2 701C772.7 701 727.3 701 681.8 701C636.3 701 590.7 701 545.2 701C499.7 701 454.3 701 409 701C363.7 701 318.3 701 272.8 701C227.3 701 181.7 701 136.2 701C90.7 701 45.3 701 22.7 701L0 701Z" fill="#598299"></path><path d="M0 428L22.7 436.3C45.3 444.7 90.7 461.3 136.2 473.8C181.7 486.3 227.3 494.7 272.8 494C318.3 493.3 363.7 483.7 409 475C454.3 466.3 499.7 458.7 545.2 450.8C590.7 443 636.3 435 681.8 437.5C727.3 440 772.7 453 818.2 461.3C863.7 469.7 909.3 473.3 954.8 478.7C1000.3 484 1045.7 491 1091 485.5C1136.3 480 1181.7 462 1227.2 459.5C1272.7 457 1318.3 470 1363.8 465C1409.3 460 1454.7 437 1477.3 425.5L1500 414L1500 701L1477.3 701C1454.7 701 1409.3 701 1363.8 701C1318.3 701 1272.7 701 1227.2 701C1181.7 701 1136.3 701 1091 701C1045.7 701 1000.3 701 954.8 701C909.3 701 863.7 701 818.2 701C772.7 701 727.3 701 681.8 701C636.3 701 590.7 701 545.2 701C499.7 701 454.3 701 409 701C363.7 701 318.3 701 272.8 701C227.3 701 181.7 701 136.2 701C90.7 701 45.3 701 22.7 701L0 701Z" fill="#486b82"></path><path d="M0 494L22.7 489.8C45.3 485.7 90.7 477.3 136.2 484.8C181.7 492.3 227.3 515.7 272.8 519.2C318.3 522.7 363.7 506.3 409 494C454.3 481.7 499.7 473.3 545.2 470.2C590.7 467 636.3 469 681.8 481.2C727.3 493.3 772.7 515.7 818.2 517.8C863.7 520 909.3 502 954.8 491.7C1000.3 481.3 1045.7 478.7 1091 475C1136.3 471.3 1181.7 466.7 1227.2 469.5C1272.7 472.3 1318.3 482.7 1363.8 489.5C1409.3 496.3 1454.7 499.7 1477.3 501.3L1500 503L1500 701L1477.3 701C1454.7 701 1409.3 701 1363.8 701C1318.3 701 1272.7 701 1227.2 701C1181.7 701 1136.3 701 1091 701C1045.7 701 1000.3 701 954.8 701C909.3 701 863.7 701 818.2 701C772.7 701 727.3 701 681.8 701C636.3 701 590.7 701 545.2 701C499.7 701 454.3 701 409 701C363.7 701 318.3 701 272.8 701C227.3 701 181.7 701 136.2 701C90.7 701 45.3 701 22.7 701L0 701Z" fill="#38556c"></path><path d="M0 533L22.7 530.5C45.3 528 90.7 523 136.2 527.7C181.7 532.3 227.3 546.7 272.8 556C318.3 565.3 363.7 569.7 409 563.5C454.3 557.3 499.7 540.7 545.2 541.5C590.7 542.3 636.3 560.7 681.8 568.2C727.3 575.7 772.7 572.3 818.2 565C863.7 557.7 909.3 546.3 954.8 537.8C1000.3 529.3 1045.7 523.7 1091 529.8C1136.3 536 1181.7 554 1227.2 552.7C1272.7 551.3 1318.3 530.7 1363.8 521.8C1409.3 513 1454.7 516 1477.3 517.5L1500 519L1500 701L1477.3 701C1454.7 701 1409.3 701 1363.8 701C1318.3 701 1272.7 701 1227.2 701C1181.7 701 1136.3 701 1091 701C1045.7 701 1000.3 701 954.8 701C909.3 701 863.7 701 818.2 701C772.7 701 727.3 701 681.8 701C636.3 701 590.7 701 545.2 701C499.7 701 454.3 701 409 701C363.7 701 318.3 701 272.8 701C227.3 701 181.7 701 136.2 701C90.7 701 45.3 701 22.7 701L0 701Z" fill="#284056"></path><path d="M0 594L22.7 593C45.3 592 90.7 590 136.2 587.7C181.7 585.3 227.3 582.7 272.8 581C318.3 579.3 363.7 578.7 409 584.8C454.3 591 499.7 604 545.2 607.2C590.7 610.3 636.3 603.7 681.8 602C727.3 600.3 772.7 603.7 818.2 606.3C863.7 609 909.3 611 954.8 604.7C1000.3 598.3 1045.7 583.7 1091 578.2C1136.3 572.7 1181.7 576.3 1227.2 583C1272.7 589.7 1318.3 599.3 1363.8 596.7C1409.3 594 1454.7 579 1477.3 571.5L1500 564L1500 701L1477.3 701C1454.7 701 1409.3 701 1363.8 701C1318.3 701 1272.7 701 1227.2 701C1181.7 701 1136.3 701 1091 701C1045.7 701 1000.3 701 954.8 701C909.3 701 863.7 701 818.2 701C772.7 701 727.3 701 681.8 701C636.3 701 590.7 701 545.2 701C499.7 701 454.3 701 409 701C363.7 701 318.3 701 272.8 701C227.3 701 181.7 701 136.2 701C90.7 701 45.3 701 22.7 701L0 701Z" fill="#1a2c41"></path><path d="M0 616L22.7 618.3C45.3 620.7 90.7 625.3 136.2 629.7C181.7 634 227.3 638 272.8 638.8C318.3 639.7 363.7 637.3 409 638.3C454.3 639.3 499.7 643.7 545.2 643.5C590.7 643.3 636.3 638.7 681.8 635.8C727.3 633 772.7 632 818.2 630.8C863.7 629.7 909.3 628.3 954.8 631.2C1000.3 634 1045.7 641 1091 644.8C1136.3 648.7 1181.7 649.3 1227.2 645.8C1272.7 642.3 1318.3 634.7 1363.8 631.7C1409.3 628.7 1454.7 630.3 1477.3 631.2L1500 632L1500 701L1477.3 701C1454.7 701 1409.3 701 1363.8 701C1318.3 701 1272.7 701 1227.2 701C1181.7 701 1136.3 701 1091 701C1045.7 701 1000.3 701 954.8 701C909.3 701 863.7 701 818.2 701C772.7 701 727.3 701 681.8 701C636.3 701 590.7 701 545.2 701C499.7 701 454.3 701 409 701C363.7 701 318.3 701 272.8 701C227.3 701 181.7 701 136.2 701C90.7 701 45.3 701 22.7 701L0 701Z" fill="#0b192c"></path></svg>